<svg width="73" height="74" viewBox="0 0 73 74" fill="none" xmlns="http://www.w3.org/2000/svg">
<circle cx="36.4194" cy="36.7738" r="34.4194" stroke="white" stroke-width="4"/>
<path d="M51.3179 24.4377C47.7701 21.5173 42.1577 21.0223 41.9175 21.0045C41.5449 20.9724 41.1898 21.1861 41.0366 21.5387C41.0227 21.5601 40.9008 21.8486 40.765 22.2973C43.1117 22.7033 45.9945 23.5189 48.6022 25.175C49.02 25.4385 49.1489 26.0012 48.8912 26.4286C48.7206 26.71 48.4316 26.8631 48.1322 26.8631C47.9721 26.8631 47.8084 26.8168 47.6622 26.7242C43.1778 23.8786 37.5793 23.7361 36.5 23.7361C35.4207 23.7361 29.8187 23.8786 25.3378 26.7242C24.92 26.9913 24.3699 26.8595 24.1123 26.4322C23.8511 26.0012 23.98 25.4421 24.3978 25.175C27.0055 23.5224 29.8883 22.7033 32.235 22.3009C32.0992 21.8486 31.9773 21.5636 31.9669 21.5387C31.8102 21.1861 31.4586 20.9653 31.0825 21.0045C30.8423 21.0223 25.2299 21.5173 21.6333 24.4769C19.7567 26.2541 16 36.6394 16 45.6178C16 45.7781 16.0418 45.9312 16.1184 46.0701C18.7087 50.7286 25.78 51.9466 27.392 52C27.3989 52 27.4094 52 27.4198 52C27.7053 52 27.9734 51.8611 28.1405 51.626L29.77 49.3325C25.3726 48.1714 23.127 46.1984 22.9981 46.0808C22.6291 45.7496 22.5943 45.1727 22.9215 44.7951C23.2453 44.4176 23.8094 44.382 24.1784 44.7132C24.2306 44.7631 28.3668 48.3531 36.5 48.3531C44.6471 48.3531 48.7833 44.7488 48.8251 44.7132C49.1941 44.3856 49.7547 44.4176 50.0819 44.7987C50.4057 45.1762 50.3709 45.7496 50.0019 46.0808C49.873 46.1984 47.6274 48.1714 43.23 49.3325L44.8595 51.626C45.0266 51.8611 45.2947 52 45.5802 52C45.5906 52 45.6011 52 45.608 52C47.22 51.9466 54.2913 50.7286 56.8816 46.0701C56.9582 45.9312 57 45.7781 57 45.6178C57 36.6394 53.2433 26.2541 51.3179 24.4377ZM30.7065 41.9709C28.9831 41.9709 27.587 40.3397 27.587 38.3239C27.587 36.3081 28.9831 34.677 30.7065 34.677C32.4299 34.677 33.8261 36.3081 33.8261 38.3239C33.8261 40.3397 32.4299 41.9709 30.7065 41.9709ZM42.2935 41.9709C40.5701 41.9709 39.1739 40.3397 39.1739 38.3239C39.1739 36.3081 40.5701 34.677 42.2935 34.677C44.0169 34.677 45.413 36.3081 45.413 38.3239C45.413 40.3397 44.0169 41.9709 42.2935 41.9709Z" fill="white"/>
</svg>
