<svg width="73" height="74" viewBox="0 0 73 74" fill="none" xmlns="http://www.w3.org/2000/svg">
<circle cx="36.4194" cy="37.2897" r="34.4194" stroke="white" stroke-width="4"/>
<path d="M24.6957 35.8935V35.8822V24.6223L24.5913 24.5452H24.5826L22.2087 22.7957C20.7565 21.7218 18.687 21.7737 17.4 23.0382C16.5391 23.887 16 25.0648 16 26.3726V29.4923L24.6957 35.8935ZM47.3043 35.8822V35.8935L56 29.4923V26.3726C56 25.0822 55.4783 23.9043 54.6261 23.0555C53.3565 21.7937 51.3522 21.6456 49.9096 22.7065L47.4087 24.5452L47.3043 24.6223V35.8822ZM26.4348 37.1623L35.4835 43.8242C35.7904 44.0502 36.2104 44.0502 36.5174 43.8242L45.5652 37.1623V25.9023L36 32.9462L26.4348 25.9023V37.1623ZM47.3043 38.0466V51.1339C47.3043 51.612 47.6939 52 48.1739 52H53.8261C55.027 52 56 51.0309 56 49.8348V31.6445L47.3043 38.0466ZM24.6957 38.0466L16 31.6445V49.8348C16 51.0309 16.973 52 18.1739 52H23.8261C24.3061 52 24.6957 51.612 24.6957 51.1339V38.0466Z" fill="white"/>
</svg>
