<svg width="73" height="74" viewBox="0 0 73 74" fill="none" xmlns="http://www.w3.org/2000/svg">
<circle cx="36.4194" cy="37.0966" r="34.4194" stroke="white" stroke-width="4"/>
<path d="M28.5 18C22.1664 18 17 23.1664 17 29.5V44.5C17 50.8328 22.1662 56 28.5 56H43.5C49.8329 56 55 50.8329 55 44.5V29.5C55 23.1662 49.8328 18 43.5 18H28.5ZM28.5 21H43.5C48.2112 21 52 24.7878 52 29.5V44.5C52 49.2111 48.2111 53 43.5 53H28.5C23.7878 53 20 49.2112 20 44.5V29.5C20 24.7876 23.7876 21 28.5 21ZM46 25C44.895 25 44 25.895 44 27C44 28.105 44.895 29 46 29C47.105 29 48 28.105 48 27C48 25.895 47.105 25 46 25ZM36 27C30.4952 27 26 31.4952 26 37C26 42.5048 30.4952 47 36 47C41.5048 47 46 42.5048 46 37C46 31.4952 41.5048 27 36 27ZM36 30C39.8832 30 43 33.1168 43 37C43 40.8832 39.8832 44 36 44C32.1168 44 29 40.8832 29 37C29 33.1168 32.1168 30 36 30Z" fill="white"/>
</svg>
