<svg width="73" height="73" viewBox="0 0 73 73" fill="none" xmlns="http://www.w3.org/2000/svg">
<circle cx="36.4194" cy="36.4194" r="34.4194" stroke="white" stroke-width="4"/>
<path d="M56 25.4399C54.5658 26.0212 53.0251 26.414 51.4054 26.5915C53.0766 25.6768 54.327 24.2372 54.9231 22.5413C53.3529 23.3944 51.6344 23.9948 49.8424 24.3166C48.6373 23.1396 47.0411 22.3595 45.3016 22.0974C43.5621 21.8353 41.7767 22.1057 40.2225 22.8669C38.6683 23.628 37.4323 24.8372 36.7064 26.3067C35.9805 27.7762 35.8053 29.4238 36.208 30.9937C33.0265 30.8476 29.9141 30.0912 27.0728 28.7736C24.2315 27.456 21.7249 25.6067 19.7155 23.3457C19.0285 24.4297 18.6334 25.6866 18.6334 27.0252C18.6327 28.2302 18.9571 29.4167 19.5779 30.4796C20.1987 31.5424 21.0968 32.4486 22.1923 33.1178C20.9218 33.0809 19.6793 32.7668 18.5682 32.2019V32.2962C18.568 33.9862 19.2072 35.6243 20.3771 36.9324C21.5471 38.2406 23.1758 39.1382 24.9869 39.4729C23.8082 39.7647 22.5725 39.8077 21.373 39.5986C21.884 41.0528 22.8794 42.3245 24.2197 43.2355C25.5601 44.1466 27.1784 44.6515 28.8481 44.6795C26.0137 46.7147 22.5133 47.8187 18.91 47.8138C18.2717 47.814 17.6339 47.7799 17 47.7117C20.6576 49.8628 24.9153 51.0044 29.2637 51C43.9836 51 52.0306 39.8484 52.0306 30.1768C52.0306 29.8625 52.022 29.5452 52.0066 29.231C53.5718 28.1956 54.9229 26.9134 55.9966 25.4446L56 25.4399Z" fill="white"/>
</svg>
